<svg xmlns="http://www.w3.org/2000/svg" width="282" height="308.467" viewBox="0 0 282 308.467"><path d="M267.347 102.9c-1.867 5.136-8.743 5.198-13.26 5.534-8.004.595-16.002 1.986-23.97 2.963-17.696 2.168-35.415 4.14-53.15 5.945 3.735-7.004 9.325-12.73 14.132-18.975 1.24 6.822 7.315 10.84 14.085 9.946 7.95-1.05 14.355-6.95 19.766-12.4 1.743 4.06 5.343 8.43 9.526 10.124 4.2 1.7 9.156.67 13.266-.816 4.883-1.77 9.22-4.7 13.467-7.636 1.477-1.022 3.614-2.854 5.358-1.27 1.852 1.686 1.537 4.457.777 6.585.14-.385.273-.772.41-1.152l-.41 1.15c-2.102 5.78.98-2.745 0 0l.002.002zm-75.963-29.81l.336-.58c-1.75 2.796-2.107 6.27-2.196 9.492-.067 2.494.853 6.324-.85 8.41-2.3 2.822-5.263 5.287-7.827 7.873l-9.807 9.89c6.78-11.695 13.564-23.39 20.344-35.085.108-.204-6.78 11.698 0 0zm-46.1 74.653c-2.677 5.353-5.718 10.807-10.278 14.797-2.426 2.123-7.803 5.766-10.394 1.95-3.64-5.36.685-12.362 4.23-16.446.788-.908 1.614-1.78 2.464-2.63 1.83-.468 3.675-.878 5.52-1.272 3.755-.8 7.528-1.523 11.25-2.455-1.383 2.777-2.58 5.643-3.975 8.416.29-.575.577-1.152.865-1.73l.314-.628c-2.605 5.21.933-1.863 0 0v-.002h.003zm-32.61-54.582c.422 1.69 2.553 4.313 1.146 5.907-1.758 1.998-4.026 3.86-6.562 4.752-4.813 1.687-9.21-1.403-8.774-6.59.892-10.655 11.406-15.93 18.847-21.774-3.12 5.205-5.426 11.556-4.657 17.703zm110.415-58.43c-1.69 5.916-4.523 11.414-7.755 16.625-2.97 4.784-5.735 9.827-9.95 13.66 4.653-10.702 8.52-22.48 17.702-30.285l-.383 1.343.383-1.343h.002zm25.622 26.756c1.7-1.362 3.586-2.64 5.586-3.52 2.742-1.205 4.6.077 2.916 3.042-3.916 6.896-11.39 12.025-18.44 15.23.577-3.478 2.414-6.605 4.61-9.306 1.52-1.873 3.646-4.72 5.834-5.836-.72.368-1.21 1.297-1.943 1.7.5-.274 1.016-.936 1.437-1.31 1.295-1.036-4.192 3.727 0 0zm25.623 34.475c-1.688-7.345-8.19-10.214-14.848-7.147-5.308 2.445-14.67 8.846-19.807 2.723-1.168-1.394-3.146-5.763-2.096-7.566 1.02-1.738 4.783-2.57 6.53-3.264 6.874-2.726 13.798-6.85 19.14-12 3.765-3.625 9.896-11.783 5.205-16.928-3.224-3.535-9.673-3.215-13.87-2.05-13.943 3.87-26.654 15.554-29.875 29.917-.334 1.49-.63 3.025-.594 4.557.03 1.202.277 2.733-.264 3.86-.687 1.43-3.045 2.745-4.32 3.64-1.895 1.332-3.94 2.526-6.186 3.168-7.66 2.188-11.34-3.638-11.453-10.455-.03-1.88-.353-3.633.95-5.117 1.453-1.656 2.893-3.324 4.316-5.006 3.072-3.63 6.09-7.32 9-11.084 5.512-7.127 10.85-14.71 14.244-23.106 1.627-4.03 2.785-8.285 3.096-12.632.19-2.72.656-8.33-1.938-10.267-2.576-1.923-7.026 3.13-8.6 4.71-3.277 3.29-6.406 6.75-9.355 10.336-5.825 7.09-10.925 14.77-15.27 22.853-.968 1.804-1.898 3.623-2.794 5.462-.467.96-1.24 2.457-1.86.793-1.26-3.376-3.043-6.75-6.397-3.04-6.06 6.693-12.143 13.36-18.16 20.097-5.813 6.504-11.837 13.293-20.01 16.86-6.565 2.87-1.985-6.582-.202-8.9 5.338-6.928 12.506-12.472 16.687-20.317 1.908-3.578.933-7.154-2.746-9.047-3.786-1.947-7.484 2.208-10.245 4.522-6.354 5.318-11.8 12.033-14.64 19.89-.633 1.75-1.243 3.618-1.462 5.475-.17 1.438-.044 2.992-.613 4.354-.44 1.058-4.997 3.152-5.433 1.39-.26-1.057 1.787-4.143 2.21-5.228.75-1.924 1.38-3.9 1.784-5.93.647-3.244 1-7.322-.78-10.298-.982-1.64-2.577-2.77-4.244-3.634 2.283-1.713 3.6-4.8.902-6.824-3.002-2.253-7.323-1.482-10.694-.68-7.947 1.894-14.95 6.103-20.997 11.524-3.035 2.724-5.938 5.705-7.986 9.26-2.124 3.69-1.775 8.318-5.42 10.88-7.093 4.986-14.64 9.57-22.434 13.393-9.376 4.6-29.607 10.594-33.923-3.68-2.74-9.058.857-20.133 4.794-28.324 3.31-6.882 8.327-12.888 13.277-18.636 6.046-7.022 12.17-14.008 19.076-20.2C72.614 28.36 79.946 23.19 88.11 19.71c3.168-1.35 7.29-3.974 10.856-2.542 2.81 1.13 1.757 4.916.793 6.972-3.456 7.377-8.87 13.726-14.787 19.252-1.51 1.41-3.055 2.787-4.632 4.122-.51.432-4.464 3.982-3.362 1.214 1.874-4.707-4.584-.21-5.534.55-3.617 2.89-7.048 5.993-10.52 9.053-4.188 3.69-15.043 13.566-6.96 19.107 2.674 1.833 6.5.52 9.29-.335 3.93-1.204 7.677-2.95 11.186-5.083 6.766-4.117 12.597-9.594 17.897-15.434 5.646-6.22 11.147-12.81 15.312-20.13 3.397-5.973 6.358-13.077 4.416-20.04-2.124-7.608-10.157-9.74-17.213-8.73-8.36 1.198-16.37 5.387-23.553 9.63-14.87 8.782-29.042 19.99-40.565 32.87C19.76 62.47 8.595 78.355 7.527 95.32c-.5 7.948 1.474 15.99 7.156 21.81 5.68 5.82 13.896 7.644 21.787 7.224 17.31-.92 34.12-11.253 47.282-21.88.606-.488 3.15-3.318 4.024-2.674 1.083.8 1.34 3.59 1.792 4.777 1.328 3.48 3.61 7.16 7.023 8.896 2.737 1.39 7.146 2.203 9.972 1.596 4.92-1.058 9.76-3.61 13.463-6.946 1.514-1.362 2.913-2.854 4.188-4.44.988-1.228 3.25-.888 4.65-1.194 2-.438 4.02-1.048 5.887-1.892 2.21-.996 2.344-1.11 3.72.917 1.83 2.703 3.793 5.06 6.866 6.457 3.6 1.638 6.047-.43 8.654-2.826 3.055-2.805 6.112-5.6 9.07-8.508 1.54-1.516 3.07-3.04 4.622-4.542.717-.694 2.13-2.858 3.21-2.858-.17 0-3.4 7.84-3.788 8.625-2.626 5.314-5.658 10.518-7.82 16.045-.685 1.748-1.51 4.623-3.487 5.344-3.287 1.2-7.992.808-11.47 1.13l-24.852 2.3c-33.165 3.072-66.317 6.445-99.514 9.156 6.535 6.04 12.526 12.68 17.773 19.867 2.57 3.52 4.99 7.166 7.03 11.022.394.74 1.164 3.438 2.332 3.367 1.948-.115 4.17-1.26 6.04-1.81 18.834-5.57 37.93-10.31 57.01-14.95 1.832-.447 3.667-.873 5.485-1.36.95-.254 2.61-.654 1.986.912-.514 1.284-1.5 2.336-2.244 3.485-1.135 1.75-1.775 4.007-2.217 6.026-1.29 5.91-.066 13.115 5.342 16.64 6.412 4.18 14.59 1.073 20.04-3.216 6.54-5.146 11.374-12.234 15.364-19.45 1.956-3.534 3.958-7.02 5.57-10.72.98-2.25 1.76-3.018 4.19-3.54 3.433-.733 6.867-1.454 10.304-2.17 13.922-2.9 27.865-5.692 41.793-8.56 12.998-2.676 26.02-5.274 38.938-8.322 5.518-1.303 10.44-3.11 14.342-7.417 3.844-4.24 6.27-9.89 5.3-15.676l-.002-.003z"/><path d="M125.333 184.465c-3.992 0-7.66-1.07-10.903-3.185-7.07-4.606-10.45-13.6-8.81-23.174-16.415 4.02-33.587 8.36-50.373 13.32-.36.107-.885.305-1.44.514-1.71.646-3.84 1.45-6.27 1.595l-.486.014c-5.903 0-8.144-5.496-8.88-7.304l-.085-.207c-1.642-3.077-3.67-6.24-6.372-9.94-4.842-6.635-10.498-12.957-16.81-18.79L2.437 125.79l9.87-.807c-1.042-.81-2.03-1.693-2.957-2.643-6.657-6.82-9.946-16.582-9.26-27.484C1.07 79.236 9.28 63 25.19 45.22 36.75 32.293 51.387 20.427 67.52 10.9 75.062 6.446 84.083 1.704 93.807.31 95.244.106 96.697 0 98.13 0c10.55 0 18.645 5.523 21.125 14.414 2.808 10.065-1.576 19.506-5.12 25.73-4.738 8.33-10.884 15.52-16.27 21.454-1.436 1.58-2.845 3.066-4.237 4.463.016-.015.033-.028.05-.042 7.505-6.73 15.66-11.182 24.243-13.23 2.097-.5 4.602-1.01 7.298-1.01 3.736 0 6.966 1 9.6 2.98 2.852 2.14 4.485 5.314 4.485 8.71 0 .34-.017.68-.05 1.02 2.48-3.063 5.355-5.975 8.583-8.676.336-.28.687-.593 1.05-.917 2.62-2.328 6.577-5.846 11.94-5.846 1.9 0 3.733.446 5.45 1.33 3.52 1.812 6.06 4.73 7.145 8.212.335 1.07.526 2.173.58 3.29l2.628-2.898 5.14-5.67c2.444-2.7 5.213-4.07 8.228-4.07 1.037 0 1.98.15 2.838.417 4.388-7.895 9.436-15.337 15.026-22.145 3.086-3.76 6.396-7.415 9.832-10.866l.418-.43c3.233-3.34 7.104-6.906 12.14-6.906 2.108 0 4.108.66 5.785 1.912 5.8 4.333 5.21 12.606 4.926 16.584l-.014.185c-.34 4.78-1.557 9.793-3.618 14.896-1.646 4.07-3.693 7.94-5.92 11.58 5.913-5.497 13.213-9.71 21.193-11.925 1.764-.49 4.544-1.07 7.79-1.07 5.736 0 10.436 1.826 13.584 5.28 7.363 8.08 2.523 19.544-5.54 27.32-2.454 2.363-5.27 4.603-8.34 6.646 1.528-.383 3.07-.576 4.606-.576 8.29 0 14.926 5.555 16.9 14.15l.085.44c1.26 7.53-1.34 15.52-7.127 21.91-5.464 6.034-12.24 8.272-18.15 9.667-11.09 2.62-22.386 4.935-33.31 7.173l-5.835 1.198c-5.738 1.184-11.48 2.352-17.222 3.522-8.187 1.666-16.374 3.332-24.554 5.037-3.15.654-6.3 1.314-9.447 1.988-1.495 3.33-3.216 6.425-4.88 9.425l-.738 1.327c-5.412 9.79-10.902 16.684-17.276 21.7-3.22 2.53-9.818 6.785-17.812 6.785zm-89.064-46.53c2.65 3.046 5.15 6.174 7.483 9.37 2.657 3.64 4.777 6.88 6.568 10.047.23-.076.467-.148.704-.22 19.26-5.696 38.898-10.557 57.36-15.045l1.346-.325c1.327-.32 2.652-.638 3.97-.99.917-.247 2.02-.497 3.29-.497 2.514 0 4.76 1.01 6.295 2.796.83-.953 1.732-1.914 2.752-2.932l1.444-1.444 1.98-.506c2.144-.547 4.233-1.004 5.814-1.34 1.016-.218 2.03-.427 3.045-.638 2.757-.572 5.363-1.113 7.95-1.76l15.69-3.927-.185.368.32-.07c3.446-.74 6.897-1.462 10.348-2.18 8.203-1.71 16.412-3.382 24.622-5.054l9.362-1.906c-9.45 1.062-19.048 2.09-28.712 3.074l-13.916 1.418 6.583-12.342c.632-1.183 1.3-2.322 2-3.43l-2.407-1.84c-1.405 2.727-2.706 5.372-3.757 8.055l-.22.577c-.94 2.53-2.69 7.24-7.652 9.052-3.402 1.24-7.06 1.334-10.283 1.414-1.14.03-2.216.057-3.06.133l-24.852 2.302c-10.34.96-20.68 1.945-31.02 2.933-17.333 1.657-35.128 3.356-52.87 4.905l.006.006zm48.245-26.595c-4.12 3.127-8.187 5.9-12.2 8.318 5.167-.49 10.31-.98 15.412-1.47l2.22-.21c-2.362-1.927-4.126-4.306-5.432-6.638zM39.582 51.618c-1.122 1.17-2.216 2.352-3.28 3.54C22.71 70.35 15.73 83.64 14.967 95.79c-.295 4.696.34 11.31 5.05 16.135 4.06 4.16 10.02 5.03 14.304 5.03.436 0 .87-.01 1.303-.024-6.883-1.843-11.793-6.487-13.87-13.355-3.51-11.604.897-24.738 5.212-33.713 3.246-6.752 7.77-12.54 12.616-18.246l.002.002zm89.02 58.418c-1.134 1.282-2.336 2.496-3.588 3.623-.435.39-.878.77-1.332 1.14l15.956-1.477c-2.096-1.357-3.754-2.984-5.135-4.654-1.282.42-2.633.79-4.045 1.097-.674.146-1.3.22-1.856.27zM43.73 70.562c-1.257 1.878-2.377 3.784-3.328 5.76-4.48 9.317-6.033 17.462-4.378 22.937.413 1.362 1.103 3.645 6.732 3.645 5.606 0 12.54-2.425 16.773-4.502 7.075-3.472 14.285-7.777 21.43-12.8.207-.28.61-1.63.873-2.522.508-1.708 1.14-3.837 2.373-5.978 1.706-2.958 3.802-5.493 5.856-7.627-3.924 3.583-7.77 6.496-11.744 8.91-4.17 2.538-8.502 4.5-12.878 5.844l-.393.12c-2.005.618-4.75 1.466-7.755 1.466-2.844 0-5.38-.75-7.54-2.23-3.703-2.54-5.88-6.205-6.13-10.324-.053-.913-.015-1.813.104-2.7h.004zm154.693 26.43l.01.042c.504 2.77 2.648 3.846 4.595 3.942-1.773-.977-3.325-2.328-4.605-3.985zm32.41-6.272l.967 2.25c1.025 2.39 2.968 4.723 4.75 5.79-.934-.688-1.795-1.5-2.576-2.436-.702-.837-2.128-2.994-3.105-5.69-.015.03-.027.057-.037.086zm-110.835.736l.1.207c.854 1.812 1.316 3.397 1.514 4.776.69-.34 1.385-.584 2.045-.757-.17-.4-.31-.823-.418-1.26-.876-3.538.804-6.634 2.154-9.12.15-.28.294-.534.397-.743.644-1.66 1.09-3.146 1.365-4.537.773-3.89.142-5.004.136-5.015 0 0-.262-.32-1.28-.85l-9.91-5.14c-.885.37-1.766.778-2.64 1.226l10.26 9.045c-2.615 4.364-3.922 8.646-3.722 12.166zm50.896-3.872v5.98l9.732-16.783c-1.98 2.195-3.96 4.394-5.933 6.6l-.16.18c-1.176 1.317-2.385 2.67-3.64 4.024zm39.31.295c.147.005.486-.007 1.105-.184 1.103-.315 2.357-.983 3.947-2.1.304-.21.65-.444 1.03-.69l.395-.262-.012-.27c-.055-2.305.338-4.42.772-6.36.573-2.556 1.4-5.058 2.452-7.48-2.184 2.75-4.506 5.578-7.04 8.57-1.17 1.38-2.35 2.75-3.535 4.112v.02c.014.348.027.696.032 1.05.035 1.99.554 3.218.85 3.59l.003.003zm-12.648-18.99l1.835 3.026c.7-.812 1.398-1.63 2.093-2.446.96-1.134 1.89-2.243 2.79-3.33l-2.34-1.677c-1.17 2.16-2.635 3.64-4.377 4.426zM74.173 56.675c-2.154 1.796-4.28 3.677-6.5 5.644l-1.814 1.604c-3.427 3.017-5.26 5.115-6.238 6.494.36-.105.713-.215 1.032-.312l.424-.13c3.19-.978 6.384-2.433 9.494-4.324C75.6 62.594 80.51 58.41 85.95 52.534c-.26.227-.525.45-.787.672l-.09.08c-2.407 2.08-4.83 3.945-8.023 3.945-1 0-1.976-.192-2.877-.55v-.004zm15.134-29.34c-6.13 2.856-12.136 6.953-18.298 12.478-.935.836-1.855 1.69-2.766 2.562 2.042-1.414 5.256-3.222 8.344-3.222.605 0 1.2.063 1.778.188.51-.46 1.02-.928 1.524-1.4 3.855-3.6 6.974-7.11 9.415-10.605h.002z"/><path fill="#FFF" d="M267.347 102.9c-1.867 5.136-8.743 5.198-13.26 5.534-8.004.595-16.002 1.986-23.97 2.963-17.696 2.168-35.415 4.14-53.15 5.945 3.735-7.004 9.325-12.73 14.132-18.975 1.24 6.822 7.315 10.84 14.085 9.946 7.95-1.05 14.355-6.95 19.766-12.4 1.743 4.06 5.343 8.43 9.526 10.124 4.2 1.7 9.156.67 13.266-.816 4.883-1.77 9.22-4.7 13.467-7.636 1.477-1.022 3.614-2.854 5.358-1.27 1.852 1.686 1.537 4.457.777 6.585.14-.385.273-.772.41-1.152l-.41 1.15c-2.102 5.78.98-2.745 0 0l.002.002zm-75.963-29.81l.336-.58c-1.75 2.796-2.107 6.27-2.196 9.492-.067 2.494.853 6.324-.85 8.41-2.3 2.822-5.263 5.287-7.827 7.873l-9.807 9.89c6.78-11.695 13.564-23.39 20.344-35.085.108-.204-6.78 11.698 0 0zm-46.1 74.653c-2.677 5.353-5.718 10.807-10.278 14.797-2.426 2.123-7.803 5.766-10.394 1.95-3.64-5.36.685-12.362 4.23-16.446.788-.908 1.614-1.78 2.464-2.63 1.83-.468 3.675-.878 5.52-1.272 3.755-.8 7.528-1.523 11.25-2.455-1.383 2.777-2.58 5.643-3.975 8.416.29-.575.577-1.152.865-1.73l.314-.628c-2.605 5.21.933-1.863 0 0v-.002h.003zm-32.61-54.582c.422 1.69 2.553 4.313 1.146 5.907-1.758 1.998-4.026 3.86-6.562 4.752-4.813 1.687-9.21-1.403-8.774-6.59.892-10.655 11.406-15.93 18.847-21.774-3.12 5.205-5.426 11.556-4.657 17.703zm110.415-58.43c-1.69 5.916-4.523 11.414-7.755 16.625-2.97 4.784-5.735 9.827-9.95 13.66 4.653-10.702 8.52-22.48 17.702-30.285l-.383 1.343.383-1.343h.002zm25.622 26.756c1.7-1.362 3.586-2.64 5.586-3.52 2.742-1.205 4.6.077 2.916 3.042-3.916 6.896-11.39 12.025-18.44 15.23.577-3.478 2.414-6.605 4.61-9.306 1.52-1.873 3.646-4.72 5.834-5.836-.72.368-1.21 1.297-1.943 1.7.5-.274 1.016-.936 1.437-1.31 1.295-1.036-4.192 3.727 0 0zm25.623 34.475c-1.688-7.345-8.19-10.214-14.848-7.147-5.308 2.445-14.67 8.846-19.807 2.723-1.168-1.394-3.146-5.763-2.096-7.566 1.02-1.738 4.783-2.57 6.53-3.264 6.874-2.726 13.798-6.85 19.14-12 3.765-3.625 9.896-11.783 5.205-16.928-3.224-3.535-9.673-3.215-13.87-2.05-13.943 3.87-26.654 15.554-29.875 29.917-.334 1.49-.63 3.025-.594 4.557.03 1.202.277 2.733-.264 3.86-.687 1.43-3.045 2.745-4.32 3.64-1.895 1.332-3.94 2.526-6.186 3.168-7.66 2.188-11.34-3.638-11.453-10.455-.03-1.88-.353-3.633.95-5.117 1.453-1.656 2.893-3.324 4.316-5.006 3.072-3.63 6.09-7.32 9-11.084 5.512-7.127 10.85-14.71 14.244-23.106 1.627-4.03 2.785-8.285 3.096-12.632.19-2.72.656-8.33-1.938-10.267-2.576-1.923-7.026 3.13-8.6 4.71-3.277 3.29-6.406 6.75-9.355 10.336-5.825 7.09-10.925 14.77-15.27 22.853-.968 1.804-1.898 3.623-2.794 5.462-.467.96-1.24 2.457-1.86.793-1.26-3.376-3.043-6.75-6.397-3.04-6.06 6.693-12.143 13.36-18.16 20.097-5.813 6.504-11.837 13.293-20.01 16.86-6.565 2.87-1.985-6.582-.202-8.9 5.338-6.928 12.506-12.472 16.687-20.317 1.908-3.578.933-7.154-2.746-9.047-3.786-1.947-7.484 2.208-10.245 4.522-6.354 5.318-11.8 12.033-14.64 19.89-.633 1.75-1.243 3.618-1.462 5.475-.17 1.438-.044 2.992-.613 4.354-.44 1.058-4.997 3.152-5.433 1.39-.26-1.057 1.787-4.143 2.21-5.228.75-1.924 1.38-3.9 1.784-5.93.647-3.244 1-7.322-.78-10.298-.982-1.64-2.577-2.77-4.244-3.634 2.283-1.713 3.6-4.8.902-6.824-3.002-2.253-7.323-1.482-10.694-.68-7.947 1.894-14.95 6.103-20.997 11.524-3.035 2.724-5.938 5.705-7.986 9.26-2.124 3.69-1.775 8.318-5.42 10.88-7.093 4.986-14.64 9.57-22.434 13.393-9.376 4.6-29.607 10.594-33.923-3.68-2.74-9.058.857-20.133 4.794-28.324 3.31-6.882 8.327-12.888 13.277-18.636 6.046-7.022 12.17-14.008 19.076-20.2C72.614 28.36 79.946 23.19 88.11 19.71c3.168-1.35 7.29-3.974 10.856-2.542 2.81 1.13 1.757 4.916.793 6.972-3.456 7.377-8.87 13.726-14.787 19.252-1.51 1.41-3.055 2.787-4.632 4.122-.51.432-4.464 3.982-3.362 1.214 1.874-4.707-4.584-.21-5.534.55-3.617 2.89-7.048 5.993-10.52 9.053-4.188 3.69-15.043 13.566-6.96 19.107 2.674 1.833 6.5.52 9.29-.335 3.93-1.204 7.677-2.95 11.186-5.083 6.766-4.117 12.597-9.594 17.897-15.434 5.646-6.22 11.147-12.81 15.312-20.13 3.397-5.973 6.358-13.077 4.416-20.04-2.124-7.608-10.157-9.74-17.213-8.73-8.36 1.198-16.37 5.387-23.553 9.63-14.87 8.782-29.042 19.99-40.565 32.87C19.76 62.47 8.595 78.355 7.527 95.32c-.5 7.948 1.474 15.99 7.156 21.81 5.68 5.82 13.896 7.644 21.787 7.224 17.31-.92 34.12-11.253 47.282-21.88.606-.488 3.15-3.318 4.024-2.674 1.083.8 1.34 3.59 1.792 4.777 1.328 3.48 3.61 7.16 7.023 8.896 2.737 1.39 7.146 2.203 9.972 1.596 4.92-1.058 9.76-3.61 13.463-6.946 1.514-1.362 2.913-2.854 4.188-4.44.988-1.228 3.25-.888 4.65-1.194 2-.438 4.02-1.048 5.887-1.892 2.21-.996 2.344-1.11 3.72.917 1.83 2.703 3.793 5.06 6.866 6.457 3.6 1.638 6.047-.43 8.654-2.826 3.055-2.805 6.112-5.6 9.07-8.508 1.54-1.516 3.07-3.04 4.622-4.542.717-.694 2.13-2.858 3.21-2.858-.17 0-3.4 7.84-3.788 8.625-2.626 5.314-5.658 10.518-7.82 16.045-.685 1.748-1.51 4.623-3.487 5.344-3.287 1.2-7.992.808-11.47 1.13l-24.852 2.3c-33.165 3.072-66.317 6.445-99.514 9.156 6.535 6.04 12.526 12.68 17.773 19.867 2.57 3.52 4.99 7.166 7.03 11.022.394.74 1.164 3.438 2.332 3.367 1.948-.115 4.17-1.26 6.04-1.81 18.834-5.57 37.93-10.31 57.01-14.95 1.832-.447 3.667-.873 5.485-1.36.95-.254 2.61-.654 1.986.912-.514 1.284-1.5 2.336-2.244 3.485-1.135 1.75-1.775 4.007-2.217 6.026-1.29 5.91-.066 13.115 5.342 16.64 6.412 4.18 14.59 1.073 20.04-3.216 6.54-5.146 11.374-12.234 15.364-19.45 1.956-3.534 3.958-7.02 5.57-10.72.98-2.25 1.76-3.018 4.19-3.54 3.433-.733 6.867-1.454 10.304-2.17 13.922-2.9 27.865-5.692 41.793-8.56 12.998-2.676 26.02-5.274 38.938-8.322 5.518-1.303 10.44-3.11 14.342-7.417 3.844-4.24 6.27-9.89 5.3-15.676l-.002-.003z"/><path fill="#FFF" d="M125.333 181.903c-3.486 0-6.685-.932-9.504-2.77-7.887-5.138-8.942-14.943-7.452-21.78.172-.792.396-1.73.7-2.728-17.66 4.304-36.326 8.957-54.557 14.347-.45.133-1.016.346-1.615.57-1.63.616-3.48 1.31-5.52 1.434l-.336.01c-4.18 0-5.81-4-6.51-5.71-.05-.122-.094-.235-.135-.33-1.71-3.218-3.816-6.515-6.624-10.358-4.94-6.768-10.706-13.213-17.14-19.16l-8.18-7.56 11.1-.907 1.17-.097c-3.667-1.467-6.882-3.584-9.55-6.316-6.143-6.293-9.174-15.362-8.536-25.532.945-15.02 8.943-30.75 24.453-48.085C38.487 34.2 52.914 22.503 68.82 13.107c7.327-4.327 16.067-8.93 25.348-10.26 1.318-.187 2.65-.284 3.96-.284 9.35 0 16.5 4.805 18.66 12.54 2.548 9.144-1.563 17.948-4.878 23.774-4.617 8.113-10.65 15.166-15.943 20.996-6.61 7.283-12.64 12.47-18.977 16.323-3.986 2.425-8.124 4.302-12.296 5.58l-.398.124c-1.952.602-4.38 1.352-7 1.352-2.315 0-4.365-.6-6.09-1.78-3.89-2.67-4.877-6.022-5.02-8.366-.424-6.988 5.93-13.53 11.51-18.447l1.795-1.585c2.863-2.533 5.82-5.15 8.908-7.62.782-.624 4.848-3.74 8.192-3.74.857 0 1.67.178 2.4.507.89-.782 1.775-1.588 2.65-2.405 6.44-6.015 10.92-11.82 13.696-17.752.03-.062.058-.124.084-.185-1.08.324-2.353.925-3.44 1.438-.675.32-1.328.627-1.947.89-7 2.984-13.783 7.466-20.736 13.7-6.593 5.91-12.575 12.71-18.63 19.74C45.74 63.37 41.07 69.02 38.093 75.21c-4.757 9.896-6.363 18.7-4.52 24.79.77 2.546 2.51 5.468 9.184 5.468 6.04 0 13.207-2.46 17.902-4.764 7.195-3.53 14.52-7.906 21.773-13.004.847-.595 1.24-1.804 1.858-3.89.495-1.664 1.055-3.55 2.138-5.43 2.563-4.447 6.134-7.925 8.958-10.458 7.185-6.443 14.966-10.696 23.13-12.643 1.948-.466 4.27-.94 6.702-.94 3.17 0 5.88.83 8.06 2.465 2.233 1.676 3.462 4.042 3.462 6.662 0 1.005-.19 2.015-.547 2.99.657.686 1.217 1.418 1.688 2.205.225.37.428.752.612 1.15 2.903-4.303 6.604-8.367 10.987-12.037.353-.297.725-.626 1.11-.968 2.466-2.194 5.847-5.198 10.23-5.198 1.49 0 2.933.353 4.28 1.046 2.904 1.497 4.99 3.875 5.873 6.698.895 2.86.52 6.058-1.05 9-1.58 2.968-3.5 5.593-5.55 8.04l.95-1.064.16-.18c4.326-4.838 8.685-9.645 13.04-14.447l5.14-5.67c1.938-2.143 4.066-3.23 6.325-3.23 1.564 0 2.854.487 3.916 1.23l.133-.248c4.547-8.463 9.86-16.418 15.797-23.646 3.033-3.697 6.287-7.29 9.666-10.685l.444-.457c2.868-2.963 6.267-6.124 10.298-6.124 1.553 0 3.022.484 4.252 1.402 4.678 3.494 4.172 10.556 3.9 14.35l-.012.184c-.322 4.513-1.48 9.263-3.442 14.118-3.726 9.213-9.627 17.438-14.907 24.267-2.783 3.597-5.77 7.277-9.14 11.253-1.375 1.622-2.76 3.23-4.16 4.83-.013.278.007.72.02 1.064.015.326.026.654.032.986.02 1.02.264 6.11 3.463 6.11.517 0 1.105-.094 1.756-.278 1.39-.397 2.89-1.18 4.72-2.468.284-.2.612-.416.967-.647.44-.29 1.16-.764 1.616-1.13-.007-.214-.02-.458-.03-.65-.02-.33-.037-.647-.045-.95-.05-2.03.313-3.96.71-5.742 3.48-15.504 16.874-28.99 33.342-33.56 1.607-.447 4.146-.98 7.104-.98 4.995 0 9.036 1.538 11.688 4.447 6.63 7.274 1.223 17.338-5.427 23.745-5.46 5.264-12.82 9.89-20.73 13.023-.473.187-1.06.383-1.706.597-.435.144-1.132.373-1.74.608.27.746.68 1.578.97 1.95.426.507.88.81 1.905.81 2.57 0 6.407-1.973 9.208-3.412 1.04-.535 2.014-1.033 2.884-1.435 2.396-1.103 4.838-1.662 7.258-1.662 7.054 0 12.706 4.772 14.402 12.16l.058.287c1.127 6.758-1.24 13.962-6.5 19.77-4.992 5.514-11.316 7.59-16.84 8.895-11.054 2.607-22.333 4.92-33.24 7.154l-5.834 1.196c-5.733 1.18-11.472 2.35-17.208 3.517-8.193 1.667-16.388 3.336-24.574 5.04-3.426.715-6.854 1.434-10.276 2.168-.196.043-.343.08-.447.11-.065.125-.16.316-.284.603-1.503 3.444-3.298 6.676-5.032 9.8l-.737 1.333c-5.242 9.48-10.523 16.13-16.62 20.928-5.037 3.96-10.952 6.236-16.23 6.236l.003.003zm-6.684-25.084c-.377 1.07-.61 2.146-.715 2.62-.893 4.092-.24 9.233 3.234 11.496 1.22.797 2.58 1.184 4.163 1.184 2.24 0 4.86-.818 7.396-2.266-1.553.703-3.26 1.19-5.01 1.19-2.944.002-5.485-1.35-7.154-3.81-2.07-3.042-2.69-6.603-1.917-10.415zm15.182-6.993c-.463.487-.893.96-1.295 1.422-2.62 3.016-5.135 7.247-4.205 9.85.77-.302 2.053-1.017 3.453-2.24 3.18-2.78 5.59-6.607 7.545-10.247l-1.482.312c-1.136.242-2.545.547-4.016.902zm-102.918-14c3.896 4.166 7.5 8.51 10.77 12.99 3.11 4.26 5.463 7.954 7.403 11.62l.04.076.33-.125c.738-.277 1.5-.562 2.292-.8 19.207-5.678 38.81-10.528 57.24-15.01l1.338-.324c1.35-.323 2.695-.646 4.035-1.006.754-.203 1.655-.408 2.627-.408 1.973 0 3.695.873 4.73 2.397.383.566.868 1.523.925 2.8.74-1.063 1.577-2.135 2.505-3.203.81-.936 1.692-1.88 2.698-2.883l.947-.946 1.3-.332c2.1-.536 4.155-.985 5.714-1.317 1.01-.215 2.02-.424 3.028-.634 2.664-.55 5.417-1.12 8.053-1.78l10.3-2.578-4.73 9.504c-.642 1.28-1.233 2.576-1.863 3.95l-.52 1.13c-.086.254-.182.483-.275.688l.005.003-.11.223-.076.153.005-.006.746-1.348c1.7-3.06 3.306-5.948 4.622-8.962 1.363-3.13 3.188-5.41 7.647-6.367 3.44-.737 6.887-1.458 10.333-2.18 8.2-1.707 16.407-3.38 24.616-5.05 5.728-1.165 11.458-2.33 17.187-3.51l5.844-1.2c10.84-2.22 22.046-4.517 32.956-7.09 1.57-.37 3.034-.772 4.4-1.25-.898.085-1.75.142-2.522.194l-1.006.07c-5.123.38-10.404 1.12-15.514 1.835-2.745.383-5.484.766-8.227 1.102-17.17 2.104-35.088 4.108-53.25 5.957l-9.13.93 4.318-8.1c.704-1.318 1.462-2.587 2.26-3.817l-.395.398-6.446-4.934c-1.572 3.04-3.043 5.974-4.23 9l-.23.62c-.853 2.293-2.278 6.13-6.13 7.537-3.012 1.098-6.44 1.185-9.47 1.26-1.186.03-2.302.06-3.23.145l-24.85 2.3c-10.344.96-20.686 1.946-31.028 2.934-19.004 1.815-38.555 3.683-57.983 5.347v-.003zM85.43 107.39c-8.894 7.026-17.532 12.382-25.862 16.04 9.545-.89 19.04-1.795 28.4-2.688 3.884-.37 7.768-.742 11.65-1.11-1.885-.405-3.712-1.023-5.24-1.8-4.648-2.362-7.392-6.79-8.948-10.442zm1.38-92.452c-4.584 1.788-9.02 4.234-13.013 6.593-15.053 8.892-28.68 19.93-39.407 31.92C20.4 69.087 13.212 82.884 12.41 95.628c-.462 7.373 1.588 13.795 5.775 18.086 4.683 4.797 11.36 5.804 16.138 5.804.63 0 1.26-.02 1.888-.05 9.408-.502 19.65-4.155 30.588-10.893-.61.31-1.22.614-1.83.913-2.756 1.353-12.503 5.765-22.21 5.765-9.54 0-16.127-4.41-18.55-12.418-3.27-10.814.952-23.295 5.07-31.86 3.492-7.267 8.604-13.468 13.977-19.706 6.272-7.283 12.484-14.342 19.513-20.645 7.765-6.96 15.43-12.003 23.43-15.414.2-.085.406-.176.614-.27l-.002-.002zm40.548 92.618c-1.267 1.5-2.63 2.91-4.06 4.2-3.18 2.865-6.95 5.154-10.928 6.67l6.654-.62 24.853-2.3c1.256-.117 2.592-.15 3.887-.184 2.047-.05 4.34-.11 5.87-.518.274-.488.608-1.383.802-1.907.104-.274.2-.536.295-.776.23-.585.467-1.165.71-1.743-1.91 1.55-4.42 3.07-7.605 3.07-1.506 0-3.026-.347-4.522-1.027-3.622-1.648-6.053-4.246-7.922-6.79-1.675.655-3.51 1.202-5.476 1.634-.77.168-1.498.218-2.14.262-.126.01-.273.017-.416.03zm62.753-.19c-1.12 1.36-2.22 2.695-3.272 4.036 2.36-.25 4.716-.5 7.062-.755-1.42-.9-2.695-2.004-3.787-3.28h-.002zM88.955 95.014c.618.175 1.2.458 1.725.845 2.2 1.622 2.815 4.245 3.262 6.16.076.318.138.62.213.85 1.16 3.04 2.863 5.327 4.655 6.24 1.447.732 3.8 1.268 5.598 1.268.598 0 .963-.06 1.13-.096 3.988-.857 8.075-2.97 11.214-5.798 1.297-1.168 2.524-2.47 3.648-3.87 2.035-2.53 5.07-2.74 6.702-2.85.263-.018.52-.025.74-.064.272-.058.534-.12.796-.183-1.443-.74-2.5-2.04-2.91-3.708-.637-2.575.663-4.97 1.92-7.284.204-.378.395-.713.504-.958.7-1.8 1.206-3.468 1.52-5.046.848-4.268.25-6.11-.18-6.832-.354-.59-1.13-1.2-2.302-1.807l-6.907-3.584 5.534-4.154c-.188-.015-.387-.022-.6-.022-1.417 0-3.037.34-4.435.674-6.56 1.563-12.906 5.065-18.863 10.41-2.284 2.047-5.145 4.813-7.017 8.06-.506.883-.86 2.07-1.232 3.33-.743 2.515-1.743 5.884-4.713 8.415h-.003zm134.975 8.662c-1.638 1.47-3.36 2.887-5.193 4.162 2.728-.32 5.438-.646 8.134-.973-1.09-.99-2.073-2.072-2.94-3.19zm-81.382-4.864c1.525 2.247 2.867 3.817 4.812 4.703.24.11.405.147.477.147.537 0 2.276-1.6 2.85-2.123l.502-.464c1.07-.984 2.157-1.982 3.242-2.988-1.076.604-2.19 1.164-3.343 1.666-1.456.637-2.76.945-3.98.945-1.808 0-3.418-.685-4.56-1.89l-.002.002zm51.844-9.67l1.52 8.35c.67 3.68 3.58 6.054 7.413 6.054.4 0 .812-.026 1.223-.082 2.92-.385 5.695-1.694 8.31-3.47-.884.153-1.752.23-2.596.23-7.767.002-13.09-6.32-13.246-15.73-.003-.256-.015-.505-.024-.75-.076-1.852-.2-4.952 2.188-7.677 1.435-1.635 2.854-3.28 4.262-4.94 1.13-1.335 2.216-2.636 3.265-3.91l-5.803-4.155c.69-1.59 1.366-3.205 2.043-4.826.747-1.792 1.5-3.594 2.284-5.388-.88 1.503-1.736 3.026-2.564 4.57-.937 1.74-1.846 3.52-2.705 5.286-.568 1.172-2.087 4.29-5.622 4.29-.85 0-3.654-.262-5.072-3.56l-3.482 3.843c-4.34 4.787-8.683 9.575-12.99 14.397l-.16.18c-.74.825-1.49 1.665-2.256 2.51.168-.015.344-.02.522-.02v9.782h.01c1.318-.002 2.052-.617 2.06-.623-.064.055-.16.156-.268.275.67-.268 1.242-.667 1.686-1.113l9.807-16.91-.002-.002c.04-.067.254-.434.715-1.228.193-.34.404-.705.63-1.094.648-1.12 1.33-2.29 1.563-2.69l.01-.013c.147-.273.308-.542.472-.807l.006.002.992-1.676 5.57-.047 2.85 4.71-1.062 2.036.02.012-.335.58c-.944 1.78-1.144 4.34-1.205 6.6-.013.427.03 1.06.076 1.734.1 1.543.227 3.403-.102 5.27zm33.63 1.517l1.427 3.322c1.45 3.378 4.272 6.47 6.864 7.52 2.275.92 5.626.618 9.764-.882 2.096-.76 4.084-1.764 6.11-2.968-2.196.795-4.504 1.35-6.832 1.35-3.788 0-7.044-1.495-9.417-4.323-1.065-1.27-4.51-6.794-3.287-11.443l1.3-7.802c.654-3.936 2.5-7.727 5.644-11.588l.294-.365c-5.183 4.805-8.96 10.86-10.39 17.234-.244 1.09-.504 2.338-.48 3.365.006.2.02.406.03.618.08 1.373.2 3.446-.775 5.48-.08.162-.164.322-.253.48zm-89.263 4.706c1.27.475 2.194 1.35 2.87 2.18-.042-.078-.083-.16-.124-.24-2.674-5.438 3.486-13.834 3.55-13.917 2.165-2.813 4.567-5.365 6.894-7.834 3.63-3.855 7.057-7.498 9.35-11.8.32-.6.445-1.152.345-1.482-.087-.28-.415-.59-.906-.86-.838.213-2.72 1.887-3.647 2.707-.46.41-.9.804-1.324 1.157-6.327 5.296-10.886 11.452-13.183 17.803-.528 1.467-1.043 3.014-1.203 4.383-.04.332-.055.67-.074 1.013-.068 1.233-.16 2.924-.885 4.653-.35.835-.94 1.585-1.666 2.236zM56.74 73.402s.145.068.56.068c1.142 0 2.72-.487 4.113-.917l.42-.13c3.394-1.038 6.784-2.58 10.076-4.583 5.512-3.354 10.856-7.973 16.82-14.54 4.932-5.437 10.534-11.976 14.68-19.26 3.896-6.846 5.15-12.028 3.957-16.31-.996-3.568-4.154-4.824-6.88-5.22.104.037.21.077.312.12 1.995.8 3.52 2.32 4.292 4.285 1.377 3.495.033 7.327-.893 9.3-3.317 7.08-8.51 13.868-15.877 20.75-1.585 1.48-3.204 2.92-4.812 4.282l-.11.096c-2.493 2.154-4.242 3.322-6.346 3.322-1.163 0-2.27-.385-3.16-1.072-2.683 2.177-5.34 4.527-7.915 6.807L64.17 62c-7.798 6.87-8.26 9.785-8.215 10.514.015.242.28.542.788.89l-.004-.002zm203.36-19.58c.724.507 1.335 1.162 1.788 1.94.744 1.277 1.677 3.97-.42 7.662-.03.056-.06.11-.096.166 2.812-3.248 4.735-7.137 3.48-8.518-.75-.822-2.537-1.297-4.752-1.25zm-15.017 5.582l.676.646-.022-.036-.64-.622-.02.012h.005zm-16.328-36.342c-.514.472-1.104 1.054-1.772 1.744-.203.21-.386.4-.542.555-.21.215-.42.426-.63.64l2.958-2.514c-.002-.15-.006-.29-.013-.424zm-124.118 86.112c-3.188 0-6.087-1.244-8.164-3.502-2.132-2.317-3.15-5.46-2.865-8.85.916-10.94 9.567-17.145 16.52-22.128 1.487-1.065 2.89-2.073 4.18-3.084l7.217 6.362c-2.998 5-4.425 10-4.047 14.137.077.17.207.442.3.644.848 1.797 2.83 6.006-.285 9.545-1.808 2.052-4.77 4.784-8.613 6.133-1.4.49-2.824.74-4.24.74h-.003zm3.038-19.985c-2.38 2.44-4.04 5.145-4.318 8.45-.052.63.06 1.13.316 1.41.26.278.666.34.963.34.31 0 .646-.063 1-.19 1.066-.374 2.222-1.126 3.344-2.167l-.053-.11c-.356-.76-.76-1.616-1-2.575l-.11-.585c-.192-1.548-.23-3.078-.142-4.576v.002z"/><path fill="#D50A0A" d="M267.347 102.9c-1.867 5.136-8.743 5.198-13.26 5.534-8.004.595-16.002 1.986-23.97 2.963-17.696 2.168-35.415 4.14-53.15 5.945 3.735-7.004 9.325-12.73 14.132-18.975 1.24 6.822 7.315 10.84 14.085 9.946 7.95-1.05 14.355-6.95 19.766-12.4 1.743 4.06 5.343 8.43 9.526 10.124 4.2 1.7 9.156.67 13.266-.816 4.883-1.77 9.22-4.7 13.467-7.636 1.477-1.022 3.614-2.854 5.358-1.27 1.852 1.686 1.537 4.457.777 6.585m-75.963-29.81l.336-.58c-1.75 2.796-2.107 6.27-2.196 9.492-.067 2.494.853 6.324-.85 8.41-2.3 2.822-5.263 5.287-7.827 7.873l-9.807 9.89c6.78-11.695 13.564-23.39 20.344-35.085.108-.205-6.78 11.698 0 0zm-46.1 74.653c-2.677 5.353-5.718 10.807-10.278 14.797-2.426 2.123-7.803 5.766-10.394 1.95-3.64-5.36.685-12.362 4.23-16.446.788-.908 1.614-1.78 2.464-2.63 1.83-.468 3.675-.878 5.52-1.272 3.755-.8 7.528-1.523 11.25-2.455-1.383 2.777-2.58 5.643-3.975 8.416.29-.575.574-1.152.863-1.73l.314-.628c-2.604 5.21.934-1.863 0 0v-.002h.004zM112.67 93.16c.42 1.69 2.553 4.313 1.146 5.907-1.758 1.998-4.026 3.86-6.562 4.752-4.813 1.687-9.21-1.403-8.774-6.59.892-10.655 11.406-15.93 18.847-21.774-3.122 5.205-5.428 11.555-4.66 17.703zm110.415-58.43c-1.69 5.916-4.522 11.414-7.754 16.625-2.97 4.784-5.735 9.827-9.95 13.66 4.653-10.702 8.52-22.48 17.702-30.285h.002zm25.623 26.756c1.7-1.362 3.586-2.64 5.586-3.52 2.742-1.206 4.6.077 2.916 3.042-3.916 6.896-11.39 12.025-18.44 15.23.577-3.48 2.414-6.605 4.61-9.306 1.52-1.873 3.646-4.72 5.834-5.836-.72.368-1.21 1.297-1.943 1.7.5-.274 1.016-.936 1.437-1.31 1.295-1.036-4.192 3.727 0 0zm25.623 34.475c-1.688-7.345-8.19-10.214-14.848-7.147-5.308 2.445-14.67 8.846-19.808 2.723-1.168-1.394-3.147-5.763-2.095-7.566 1.02-1.738 4.783-2.57 6.53-3.264 6.874-2.726 13.798-6.85 19.14-12 3.765-3.625 9.896-11.783 5.205-16.928-3.223-3.535-9.672-3.215-13.87-2.05-13.942 3.87-26.653 15.554-29.874 29.917-.334 1.49-.63 3.025-.594 4.557.027 1.202.275 2.733-.266 3.86-.687 1.43-3.045 2.745-4.32 3.64-1.895 1.332-3.94 2.526-6.186 3.168-7.66 2.188-11.34-3.638-11.453-10.455-.03-1.88-.353-3.634.95-5.117 1.453-1.656 2.893-3.324 4.316-5.006 3.073-3.63 6.09-7.32 9-11.084 5.513-7.127 10.85-14.71 14.243-23.106 1.63-4.03 2.787-8.285 3.098-12.632.192-2.72.657-8.33-1.937-10.267-2.576-1.923-7.026 3.13-8.6 4.71-3.277 3.29-6.406 6.75-9.355 10.336-5.825 7.09-10.925 14.77-15.27 22.853-.968 1.804-1.898 3.623-2.794 5.462-.467.96-1.24 2.457-1.86.793-1.26-3.376-3.043-6.75-6.397-3.04-6.06 6.692-12.142 13.36-18.16 20.097-5.812 6.504-11.836 13.293-20.01 16.86-6.564 2.87-1.984-6.582-.2-8.9 5.337-6.928 12.505-12.472 16.686-20.317 1.907-3.578.933-7.154-2.746-9.047-3.785-1.947-7.483 2.208-10.244 4.522-6.354 5.318-11.8 12.033-14.64 19.89-.633 1.75-1.243 3.618-1.463 5.475-.17 1.438-.043 2.99-.612 4.354-.44 1.058-4.997 3.152-5.433 1.39-.26-1.057 1.787-4.143 2.21-5.228.75-1.924 1.38-3.9 1.784-5.93.645-3.244 1-7.323-.782-10.298-.982-1.64-2.577-2.77-4.244-3.634 2.283-1.713 3.6-4.8.902-6.824-3.002-2.254-7.324-1.482-10.694-.68-7.947 1.894-14.95 6.103-20.997 11.524-3.035 2.724-5.938 5.705-7.986 9.26-2.127 3.69-1.777 8.318-5.42 10.88-7.095 4.986-14.643 9.57-22.436 13.393-9.376 4.6-29.607 10.594-33.923-3.68-2.74-9.058.858-20.133 4.795-28.324 3.31-6.882 8.327-12.888 13.277-18.636C53 47.442 59.124 40.456 66.03 34.264 72.614 28.36 79.946 23.19 88.11 19.71c3.168-1.35 7.29-3.974 10.856-2.542 2.81 1.13 1.757 4.916.793 6.972-3.456 7.377-8.87 13.726-14.787 19.252-1.51 1.41-3.055 2.787-4.632 4.122-.51.432-4.464 3.982-3.362 1.214 1.874-4.707-4.584-.21-5.534.55-3.617 2.89-7.048 5.993-10.52 9.053-4.188 3.69-15.043 13.566-6.96 19.107 2.674 1.833 6.5.52 9.29-.335 3.93-1.204 7.677-2.95 11.186-5.083 6.766-4.117 12.597-9.594 17.897-15.434 5.646-6.22 11.147-12.81 15.312-20.13 3.397-5.973 6.358-13.077 4.416-20.04-2.124-7.608-10.157-9.74-17.213-8.73-8.36 1.198-16.37 5.387-23.553 9.63-14.87 8.782-29.042 19.99-40.565 32.87C19.76 62.47 8.595 78.355 7.527 95.32c-.5 7.948 1.474 15.99 7.156 21.81 5.68 5.82 13.896 7.644 21.787 7.224 17.31-.92 34.12-11.253 47.282-21.88.606-.488 3.15-3.318 4.024-2.674 1.083.8 1.34 3.59 1.792 4.777 1.328 3.48 3.61 7.16 7.023 8.896 2.737 1.39 7.146 2.203 9.972 1.596 4.92-1.058 9.76-3.61 13.463-6.946 1.514-1.362 2.913-2.854 4.188-4.44.988-1.228 3.25-.888 4.65-1.194 2-.438 4.02-1.048 5.887-1.892 2.21-.996 2.344-1.11 3.72.917 1.83 2.703 3.793 5.06 6.866 6.457 3.6 1.638 6.047-.43 8.654-2.826 3.055-2.805 6.112-5.6 9.07-8.508 1.54-1.516 3.07-3.04 4.622-4.542.717-.694 2.13-2.858 3.21-2.858-.17 0-3.4 7.84-3.788 8.625-2.626 5.314-5.658 10.518-7.82 16.045-.685 1.748-1.51 4.623-3.487 5.344-3.287 1.2-7.992.808-11.47 1.13l-24.852 2.3c-33.165 3.072-66.317 6.445-99.514 9.156 6.535 6.04 12.526 12.68 17.773 19.867 2.57 3.52 4.99 7.166 7.03 11.022.394.74 1.164 3.438 2.332 3.367 1.948-.115 4.17-1.26 6.04-1.81 18.834-5.57 37.93-10.31 57.01-14.95 1.832-.447 3.667-.873 5.485-1.36.95-.254 2.61-.654 1.986.912-.514 1.284-1.5 2.336-2.244 3.485-1.135 1.75-1.775 4.007-2.217 6.026-1.29 5.91-.066 13.115 5.342 16.64 6.412 4.18 14.59 1.073 20.04-3.216 6.54-5.146 11.374-12.234 15.364-19.45 1.956-3.534 3.958-7.02 5.57-10.72.98-2.25 1.76-3.018 4.19-3.54 3.433-.733 6.867-1.454 10.304-2.17 13.922-2.9 27.865-5.692 41.793-8.56 12.998-2.676 26.02-5.274 38.938-8.322 5.518-1.303 10.44-3.11 14.342-7.417 3.844-4.24 6.27-9.89 5.3-15.676l-.004-.003z"/><path fill="#D50A0A" d="M191.384 73.09c.11-.193.225-.387.336-.58l-.336.58"/><path fill="#FFF" d="M44.773 137.172l3.318-.44.096 1.48-.57.075 2.883 10.635.622-.086.095 1.484-2.632.35-.095-1.48.867-.117-.754-2.773-3.12.412-.39 2.93.87-.114.095 1.48-2.637.348-.093-1.48.62-.083 1.495-11.21-.573.075-.095-1.482-.002-.004zm1.764 1.54l-.853 6.48 2.526-.335-1.673-6.146zm4.973-2.434l4.972-.656 1.422 1.864.272 4.257-1.163 2.21-2.958.39.26 4.076.995-.134.096 1.48-3.01.398-.09-1.48.868-.113-.697-10.923-.873.116-.094-1.485zm2.115 1.326l.33 5.146 2.46-.326.652-1.188-.19-2.96-.778-1-2.476.33v-.002zm5.643-2.352l4.973-.66 1.424 1.865.272 4.256-1.163 2.21-2.957.392.258 4.072.996-.13.094 1.48-3.01.397-.095-1.483.87-.113-.7-10.92-.87.112-.092-1.478zm2.115 1.325l.33 5.145 2.465-.324.648-1.188-.187-2.963-.78-1-2.477.33zm5.642-2.352l3.01-.396.097 1.477-.997.132.697 10.922 2.71-.36-.14-2.146.948-.126.233 3.628-5.67.752-.096-1.48.87-.117-.698-10.923-.87.115-.095-1.48zm7.58 11.5l.996-.13-.695-10.925-.994.134-.095-1.478 3.132-.418.094 1.48-.99.133.697 10.925.99-.132.096 1.48-3.134.415-.094-1.48v-.002zm5.64-13.25l3.32-.44.093 1.478-.573.076 2.89 10.63.62-.082.094 1.48-2.64.35-.093-1.48.87-.117-.75-2.77-3.122.413-.392 2.927.87-.113.092 1.477-2.632.354-.094-1.48.62-.084 1.49-11.213-.573.08-.093-1.486zm1.765 1.535l-.853 6.48 2.523-.334-1.67-6.146zm7.777 9.705l.87-.115.097 1.48-2.883.383-.096-1.482.87-.112-.695-10.923-.87.113-.096-1.48 2.588-.34 4.38 11.31-.658-10.31-.87.116-.09-1.482 2.882-.38.097 1.48-.872.116.793 12.402-1.717.227-4.383-11.293.657 10.293-.003-.002zm12.623-4.586l.995-.134.15 2.332-1.162 2.21-3.134.413-1.427-1.866-.625-9.81 1.162-2.208 3.135-.414 1.42 1.864.15 2.333-.996.132-.102-1.574-.856-1.1-2.154.285-.58 1.068.555 8.737.697.896 2.154-.285.718-1.31-.1-1.57h-.002zm2.13-9.876l5.917-.787.23 3.627-.993.133-.138-2.146-2.912.388.305 4.72 2.908-.386.093 1.484-2.907.385.305 4.722 2.91-.387-.14-2.146.993-.134.233 3.626-5.92.788-.09-1.48.867-.117-.695-10.922-.873.117-.094-1.48v-.003zm12.256-1.625l4.973-.657 1.423 1.86.26 4.075-1.166 2.207 1.604 4.084.648-.09.094 1.48-2.338.31-.096-1.48.487-.065-1.603-4.082-1.752.23.27 4.262.75-.1.095 1.48-2.763.364-.094-1.48.87-.116-.695-10.924-.87.12-.098-1.483v.002zm2.116 1.324l.317 4.963 2.46-.328.653-1.19-.178-2.774-.777-1-2.48.326.004.002zm6.578-2.476l5.92-.785.23 3.627-.998.134-.137-2.146-2.907.383.3 4.722 2.908-.385.094 1.48-2.906.387.3 4.72 2.91-.385-.14-2.148.997-.13.234 3.628-5.918.783-.096-1.48.87-.117-.698-10.92-.87.115-.09-1.48h-.002v-.002zm7.906-1.048l4.97-.662 1.427 1.867.27 4.26-1.16 2.206-2.962.395.258 4.073 1-.132.096 1.48-3.01.396-.097-1.48.874-.116-.696-10.922-.87.117-.098-1.48zm2.115 1.324l.33 5.147 2.466-.326.65-1.19-.19-2.958-.778-1-2.476.33v-.002zm6.514-2.466l3.32-.44.096 1.48-.57.077 2.88 10.63.625-.083.097 1.482-2.638.35-.094-1.484.868-.114-.753-2.776-3.12.416-.392 2.926.87-.114.096 1.48-2.637.345-.094-1.478.62-.084 1.49-11.21-.57.08-.1-1.48.004-.002zm1.767 1.535l-.853 6.484 2.523-.334-1.67-6.15zm5.64 9.99l.998-.13-.697-10.925-.995.132-.095-1.478 3.133-.418.096 1.482-.997.13.697 10.925.994-.132.096 1.48-3.137.416-.093-1.482zm4.208-13.066l4.976-.66 1.423 1.867.26 4.073-1.166 2.206 1.607 4.084.644-.086.097 1.483-2.337.31-.095-1.483.482-.063-1.6-4.082-1.756.233.272 4.258.748-.098.097 1.48-2.763.362-.094-1.478.87-.116-.697-10.923-.87.117-.095-1.483zm2.115 1.326l.315 4.963 2.46-.328.653-1.19-.178-2.772-.774-1-2.478.33v-.003h.003z"/><g><path fill="#515151" d="M270.826 263.56c-1.06 2.79-.938 7.5-.938 9.69 0 2.187-2.062 6.687-2.312 9-.25 2.31-.625 3.187-.5 6.437s1.125 9.062 1.125 9.062h-31.313c0-.876-.404-1.595-1.25-2.44-.846-.844-2.56-1.624-2.56-2.687s-2.19-2.312-2.19-3.812-1.5-4.762-1.5-4.762h-57.253v-25.68s-1.37-2.997-1.994-3.87c-.625-.875-2.062-1.44-2.062-2s.188-1.127 1.5-1.75c1.312-.625 1.875-3 1.875-3v-5.94L169.14 237v-16.19l-2.874-6.31V201.62h20.25v-6.437h1.812s.81 2.25 1.437 3.5 1.875 3.44 2.125 4.126.438 2.31.438 2.31h6.812s1.438.94 2.125 2h3s1.125-.843 2-.843 4.625.156 4.625.156 4 2.125 5.312 3.188c1.312 1.064 3.062 1.75 4.125 1.75 1.063 0 2.47 1.407 3.312 2.25.84.846 4.248.75 4.248.75s1.062-1.25 2.877-1.25c1.812 0 2.125 1.063 3.062 1.063.937 0 8.938.062 8.938.062s.125 1-.125 1.375-4.5 3.438-6.75 4.438-5.438 2.688-7.81 6.062c-2.374 3.373-4.814 4.188-5.814 5.688s-2.75 1.75-3.375 2.688c-.624.938 0 2 0 2s1.126.875 2.126.875 4-1.5 6.5-3.437c2.5-1.938 2.876-2.625 3.626-2.625s.75 2.062.75 3.25 1.5 1.688 3.625 1.688c0 0 2.25-.438 3.375 2.25.625 1.375 3.375 2.5 7.312 3.188 3.937.688 7.75 2.25 11.25 2.25s4.188 1.75 4.188 2.876c1.154 1.155 3.375.25 3.375 1.5s.625 3.188.938 3.938c.313.75.438 3.938 1.188 4.312s1.25 1.125.625 2.062c-.625.937-3 2.838-3.125 5.588 0 0-.188 1.683.584 1.308.77-.375 1.062-1.668 2.166-3.02s2.084-1.75 2.688-3.126c.605-1.375 1.626-3.94 2.5-4.69s1.167 1.127 1.167 1.585-1.02 2.188-1.416 3.375c-.397 1.188-.88 2.272-1.504 3.92z"/><path fill="#231F20" d="M268.396 297.916h-31.674v-.166c0-.795-.35-1.47-1.2-2.32-.257-.256-.595-.506-.954-.77-.814-.6-1.658-1.223-1.658-2.034 0-.426-.44-.935-.912-1.473-.598-.688-1.274-1.466-1.274-2.343 0-1.305-1.192-4.045-1.438-4.596H171.97V258.37c0-1.538-.803-2.432-1.44-3.147-.194-.22-.38-.425-.524-.63-.273-.385-.73-.715-1.13-1.008-.52-.377-.964-.703-.964-1.09 0-.594.192-1.232 1.596-1.9 1.225-.582 1.777-2.864 1.783-2.89l-.003-5.897c0-.78-1.65-3.677-2.29-4.727l-.022-.038V220.81c0-1.806-2.82-6.18-2.85-6.224l-.025-.04v-13.09h20.25v-6.44h2.098l.04.11c.007.02.815 2.255 1.43 3.48.24.48.577 1.107.9 1.717.552 1.024 1.07 1.992 1.23 2.426.21.58.376 1.78.43 2.202h6.71l.042.026c.06.037 1.41.925 2.123 1.972h2.856c.227-.162 1.227-.844 2.055-.844.866 0 4.48.15 4.63.156l.07.02c.166.088 4.03 2.146 5.34 3.205 1.208.977 2.938 1.713 4.022 1.713 1.133 0 2.57 1.44 3.433 2.3.65.65 3.096.702 3.83.702h.227c.24-.256 1.285-1.252 2.95-1.252 1.103 0 1.686.38 2.148.688.318.21.57.376.912.376.928 0 8.857.062 8.938.062h.146l.02.146c.014.106.125 1.072-.15 1.487-.282.424-4.565 3.495-6.82 4.497-2.196.978-5.39 2.662-7.743 6.006-1.424 2.02-2.858 3.126-4.012 4.015-.787.604-1.408 1.083-1.8 1.67-.58.87-1.392 1.33-2.106 1.733-.546.31-1.015.573-1.27.954-.51.764-.097 1.635-.01 1.797.17.13 1.145.82 1.995.82.945 0 3.885-1.454 6.396-3.402.903-.697 1.532-1.24 1.993-1.634.846-.726 1.193-1.023 1.734-1.023.916 0 .916 2.058.916 3.418 0 1.32 2.162 1.52 3.453 1.52-.002 0 .143-.024.36-.024.654 0 2.273.23 3.173 2.378.573 1.265 3.193 2.39 7.187 3.088 1.504.263 2.996.653 4.44 1.03 2.382.626 4.634 1.217 6.78 1.217 3.914 0 4.332 2.184 4.354 2.97.507.468 1.23.544 1.874.61.737.076 1.502.156 1.502.96 0 1.238.637 3.18.926 3.874.117.28.203.84.304 1.485.155 1.01.393 2.537.805 2.742.505.252.845.627.958 1.058.106.4.018.82-.27 1.248-.15.226-.393.5-.673.815-.93 1.045-2.332 2.627-2.426 4.687-.04.353-.038.963.128 1.147.053.058.114.05.215.002.386-.188.655-.67 1-1.278.29-.513.615-1.093 1.11-1.697.435-.536.855-.93 1.228-1.273.58-.537 1.08-1.004 1.438-1.812.078-.176.16-.37.25-.578.635-1.473 1.502-3.49 2.295-4.17.166-.143.332-.215.492-.215.772 0 .95 1.627.95 1.926 0 .268-.24.783-.635 1.604-.285.602-.608 1.276-.793 1.824-.246.735-.522 1.435-.845 2.24-.198.503-.42 1.053-.657 1.684-.957 2.52-.938 6.58-.93 9.006l.003.623c0 1.215-.616 3.108-1.215 4.942-.506 1.56-.985 3.035-1.1 4.073-.07.66-.15 1.2-.23 1.72-.188 1.28-.354 2.385-.268 4.693.123 3.2 1.11 8.982 1.12 9.04l.038.194.003.004zm-31.346-.334H268c-.173-1.04-.98-6-1.093-8.89-.09-2.34.08-3.46.272-4.756.077-.52.156-1.053.228-1.706.114-1.072.6-2.562 1.11-4.143.593-1.81 1.198-3.68 1.198-4.84l-.002-.62c-.01-2.45-.027-6.55.95-9.128.24-.634.46-1.185.66-1.69.318-.803.597-1.495.84-2.224.187-.565.52-1.254.808-1.858.295-.618.602-1.257.602-1.462 0-.475-.24-1.593-.617-1.593-.075 0-.172.05-.274.138-.73.63-1.616 2.69-2.203 4.047l-.252.582c-.383.872-.905 1.358-1.512 1.922-.384.354-.777.725-1.2 1.24-.477.582-.794 1.148-1.077 1.648-.37.66-.666 1.184-1.147 1.414-.24.12-.46.086-.608-.08-.317-.354-.226-1.29-.213-1.396.1-2.166 1.547-3.8 2.506-4.882.274-.31.51-.574.647-.78.23-.344.306-.673.224-.978-.09-.336-.365-.635-.783-.844-.525-.264-.74-1.406-.986-2.99-.09-.6-.18-1.166-.278-1.406-.31-.744-.95-2.702-.95-4.002 0-.458-.35-.54-1.204-.63-.68-.07-1.53-.16-2.12-.753l-.052-.05v-.067c0-.814-.39-2.708-4.02-2.708-2.19 0-4.463-.597-6.867-1.228-1.44-.375-2.923-.766-4.41-1.024-4.165-.728-6.806-1.894-7.44-3.283-.792-1.896-2.137-2.18-2.864-2.18-.2 0-.324.024-.326.024h-.018c-2.465 0-3.806-.658-3.806-1.85 0-.926 0-3.085-.584-3.085-.416 0-.715.258-1.517.944-.463.396-1.096.94-2.006 1.646-2.388 1.85-5.474 3.474-6.604 3.474-1.045 0-2.18-.873-2.23-.91l-.038-.047c-.028-.048-.67-1.165.004-2.18.3-.446.824-.745 1.382-1.06.685-.387 1.46-.823 1.993-1.628.425-.634 1.097-1.15 1.873-1.75 1.136-.874 2.55-1.96 3.94-3.94 2.4-3.412 5.648-5.126 7.882-6.12 2.256-1 6.453-4.036 6.682-4.376.137-.207.145-.744.11-1.117-1.102-.01-7.932-.063-8.786-.063-.44 0-.76-.208-1.096-.43-.45-.298-.964-.634-1.968-.634-1.71 0-2.737 1.18-2.748 1.19l-.047.058-.075.003s-.114.004-.307.004c-.98 0-3.345-.078-4.065-.803-.822-.822-2.2-2.2-3.193-2.2-1.172 0-2.95-.75-4.23-1.788-1.223-.988-4.86-2.942-5.25-3.15-.397-.018-3.768-.154-4.58-.154-.813 0-1.893.8-1.9.81l-.045.032h-3.146l-.05-.076c-.597-.922-1.802-1.764-2.035-1.924h-6.91l-.02-.146c0-.017-.187-1.612-.427-2.274-.15-.412-.688-1.414-1.21-2.384-.327-.61-.667-1.24-.91-1.725-.542-1.086-1.23-2.938-1.402-3.407h-1.53v6.438H166.43v12.66c.312.484 2.875 4.535 2.875 6.36v16.142c.26.435 2.312 3.87 2.312 4.86v5.937c-.026.142-.602 2.502-1.97 3.15-1.298.617-1.405 1.15-1.405 1.602 0 .217.42.52.826.818.422.31.898.655 1.205 1.083.137.19.312.392.502.6.68.76 1.523 1.704 1.523 3.368v25.514h57.193l.046.1c.062.133 1.52 3.31 1.52 4.83 0 .752.603 1.45 1.19 2.123.512.586.995 1.14.995 1.688 0 .647.772 1.22 1.522 1.77.37.272.717.528.988.804.855.854 1.25 1.576 1.3 2.39v-.002z"/><path fill="#231F20" d="M229.22 284.055c-.225-5.74-.84-6.27-1.96-7.24-.116-.102-.233-.203-.358-.316-.38-.347-.73-.607-1.102-.886-.93-.697-1.982-1.488-3.797-3.89-2.454-3.253-5.8-5.5-5.834-5.522-.01 0-2.304-.938-4.476-2.513-2.916-2.113-4.29-4.414-3.975-6.65.75-5.308 4.446-8.996 4.483-9.033.877-.53 3.69-3.692 4.074-4.13-.033-.98-.207-7.048.55-7.806.75-.747 2.52-2.233 2.595-2.297l.215.255c-.02.016-1.834 1.54-2.57 2.276-.51.51-.547 4.946-.45 7.625v.064l-.042.05c-.133.15-3.22 3.653-4.166 4.222-.007.014-3.626 3.627-4.357 8.82-.726 5.12 8.183 8.783 8.27 8.818.063.04 3.458 2.32 5.944 5.617 1.785 2.363 2.773 3.105 3.73 3.822.377.28.73.55 1.123.903.123.11.24.213.354.312 1.188 1.028 1.85 1.6 2.078 7.48l-.332.018z"/><path fill="#717171" d="M209.33 271.6c-5.856 0-10.625-4.768-10.625-10.625s4.767-10.625 10.625-10.625c5.857 0 10.627 4.768 10.627 10.625s-4.77 10.625-10.627 10.625z"/><path fill="#C40A0A" d="M209.33 251.225c5.386 0 9.75 4.364 9.75 9.75 0 5.385-4.364 9.75-9.75 9.75-5.385 0-9.75-4.365-9.75-9.75s4.367-9.75 9.75-9.75m0-1.75c-6.34 0-11.5 5.16-11.5 11.5s5.16 11.5 11.5 11.5 11.5-5.16 11.5-11.5-5.16-11.5-11.5-11.5z"/><path d="M202.436 263s3.375 2.375 4.312 4.5h.938s2.562-5.375 7.125-7.75v-5s-6.06 3.75-7.437 9.438c0 0-1.396-2.25-2.582-3.29 0-.002-.27 1.227-2.354 2.102z"/></g></svg>